<?xml version="1.0" encoding="utf-8"?>
<!-- Generator: Adobe Illustrator 16.0.0, SVG Export Plug-In . SVG Version: 6.00 Build 0)  -->
<!DOCTYPE svg PUBLIC "-//W3C//DTD SVG 1.1//EN" "http://www.w3.org/Graphics/SVG/1.1/DTD/svg11.dtd">
<svg version="1.1" id="Layer_1" xmlns="http://www.w3.org/2000/svg" xmlns:xlink="http://www.w3.org/1999/xlink" x="0px" y="0px"
	 width="1000px" height="200px" viewBox="0 0 1000 200" enable-background="new 0 0 1000 200" xml:space="preserve">
<g>
	
		<rect x="444.808" y="72.879" transform="matrix(0.7071 -0.7071 0.7071 0.7071 69.5524 358.0804)" fill="#070606" width="44.409" height="44.409"/>
	<g>
		<path fill="#000" d="M100,55.562l1.2-1.63h81.583l5.834,11.753l-1.201,1.63H172.49l0.342,76.093l-1.2,0.857l-13.64-3.946
			l0.257-46.582H151.3c-13.21,0-19.216,1.544-22.99,4.375c-3.774,2.831-5.405,6.52-5.405,10.551c0,8.837,7.121,13.983,22.391,22.391
			l-6.177,13.555l-1.287,0.257c-14.24-10.38-27.452-28.738-27.452-44.18c0-9.18,4.632-21.275,28.138-21.275
			c7.206,0,13.984,0.171,19.817,0.342V67.315h-52.501L100,55.562z"/>
		<path fill="#000" d="M124.535,150.186h1.029c12.353,16.128,22.647,23.848,32.169,23.848c7.12,0,14.07-4.633,14.07-10.637
			c0-1.458-1.202-3.346-4.805-3.346c-3.774,0-7.892,1.974-11.924,4.976h-1.115l-7.12-12.011c5.404-3.859,10.551-5.833,14.755-5.833
			c6.176,0,11.752,3.346,16.213,11.839c2.145,4.031,3.089,7.806,3.089,11.152c0,8.664-7.464,15.87-18.53,15.87
			c-12.954,0-26.508-10.209-41.95-31.141L124.535,150.186z"/>
		<path fill="#000" d="M180.038,55.562l1.201-1.63h61.509l5.834,11.753l-1.201,1.63H227.65c0.687,3.603,0.944,7.034,0.944,10.551
			c0,17.157-7.721,25.822-18.701,31.913c7.12,7.722,18.358,14.67,31.655,21.018l-6.606,14.584h-1.287
			c-17.5-13.04-31.226-26.852-39.375-41.949c-2.059-3.689-3.26-7.035-3.26-8.836c0-1.373,0.343-2.917,1.459-4.805
			c1.458-2.316,4.117-3.603,8.063-3.603c4.032,0,7.978,0.086,10.637,0.344c1.888-2.488,3.175-6.348,3.175-12.696
			c0-2.317-0.172-4.547-0.687-6.52h-27.794L180.038,55.562z"/>
		<path fill="#000" d="M240.003,55.562l1.201-1.63h13.812c-0.858-17.5-6.606-27.023-18.444-27.023
			c-7.292,0-11.924,4.719-11.924,11.324c0,3.861,1.629,7.807,4.89,11.41l-1.287,1.974l-12.953-5.662
			c-3.947-4.804-5.662-10.123-5.662-15.098c0-10.037,8.063-16.9,19.73-16.9c10.123,0,19.988,5.319,28.824,17.415
			c4.718,6.606,7.978,14.155,10.208,22.562h11.067l5.833,11.753l-1.201,1.63H269.17l0.344,76.093l-1.201,0.857l-13.812-4.031
			l0.343-72.919h-9.007L240.003,55.562z"/>
		<path fill="#000" d="M276.72,55.562l1.2-1.63h82.698l5.834,11.753l-1.201,1.63h-14.926l0.342,76.093l-1.2,0.857l-13.64-3.946
			l0.343-19.902c-3.946,2.488-8.493,3.603-13.812,3.603c-16.985,0-29.596-12.267-38.089-36.03l0.944-1.63
			c12.268-2.745,20.589-6.176,20.589-13.125c0-2.23-0.772-4.204-2.145-5.919h-21.104L276.72,55.562z M336.341,67.315h-22.133
			c2.66,4.976,4.891,9.865,4.891,15.27c0,8.322-7.206,13.298-19.302,16.128c1.801,7.035,7.463,10.895,16.814,10.895
			c5.319,0,10.723-1.63,15.27-5.232c2.831-2.315,4.46-5.405,4.46-10.209V67.315z"/>
	</g>
	<g>
		<path fill="#000" d="M617.48,84.16c0-5.891-0.979-9.846-2.93-11.866c-1.954-2.019-5.61-3.03-10.973-3.03h-2.98v51.64h6.951
			v1.986h-28.798v-1.986h6.951v-51.64h-2.979c-5.298,0-8.922,1.011-10.875,3.03c-1.952,2.02-2.929,5.975-2.929,11.866h-1.986V67.278
			h52.533V84.16H617.48z"/>
		<path fill="#000" d="M665.643,122.891v-5.264c-1.259,1.788-3.228,3.294-5.91,4.519c-2.68,1.224-5.576,1.837-8.688,1.837
			c-11.784,0-17.675-6.388-17.675-19.166V79.195h-4.967v-1.986h19.86v29.792c0,4.701,0.696,8.044,2.087,10.029
			c1.39,1.986,3.475,2.979,6.256,2.979c3.707,0,6.719-1.986,9.037-5.958V79.195h-4.966v-1.986h19.86v43.695h4.967v1.986H665.643z"/>
		<path fill="#000" d="M723.237,122.891h-24.825v-1.986h4.967V79.195h-4.967v-1.986h19.86v11.817
			c0.597-3.242,1.671-5.891,3.229-7.945c1.555-2.05,3.276-3.409,5.162-4.07c1.888-0.661,3.708-0.993,5.463-0.993
			c1.754,0,3.441,0.315,5.065,0.944c1.622,0.629,2.829,1.886,3.624,3.773c0.794,1.887,0.827,3.774,0.099,5.66
			c-0.729,1.888-2.004,3.228-3.823,4.022c-1.821,0.795-3.492,0.895-5.015,0.297c-1.523-0.595-2.614-1.405-3.275-2.432
			c-0.664-1.025-1.128-2.002-1.392-2.929c-0.662-2.45-1.556-3.675-2.682-3.675c-1.258,0-2.649,2.17-4.17,6.505
			c-1.525,4.337-2.285,8.922-2.285,13.753v18.968h4.965V122.891z"/>
		<path fill="#000" d="M772.194,120.904h4.967v1.986h-24.827v-1.986h4.965V79.195h-3.971v-1.986h18.866V120.904z M773.088,64.051
			c0,2.417-0.843,4.469-2.532,6.158c-1.688,1.687-3.74,2.532-6.157,2.532c-2.416,0-4.485-0.845-6.206-2.532
			c-1.722-1.689-2.582-3.74-2.582-6.158c0-2.417,0.86-4.484,2.582-6.207c1.721-1.722,3.79-2.582,6.206-2.582
			c2.417,0,4.469,0.86,6.157,2.582C772.245,59.567,773.088,61.635,773.088,64.051z"/>
		<path fill="#000" d="M805.461,142.206c-1.986,1.687-4.635,2.531-7.944,2.531c-3.312,0-5.894-0.712-7.746-2.135
			c-1.854-1.426-2.78-3.312-2.78-5.661c0-2.352,0.678-4.221,2.036-5.61c1.355-1.39,2.994-2.085,4.915-2.085
			c1.92,0,3.542,0.363,4.865,1.093c1.324,0.727,2.25,1.521,2.781,2.382c1.455,2.317,2.831,3.476,4.121,3.476
			c1.291,0,2.435-1.126,3.427-3.375l4.17-9.832l-23.236-43.794h-3.973v-1.986h26.713v1.986h-4.965l13.308,26.216l11.419-26.216
			h-7.944v-1.986h16.287v1.986h-5.959l-23.833,54.718C809.333,137.753,807.447,140.517,805.461,142.206z"/>
		<path fill="#000" d="M896.226,122.642c-1.853,0.497-4.006,0.745-6.453,0.745c-5.43,0-8.839-1.621-10.229-4.867
			c-3.312,3.443-8.376,5.165-15.193,5.165c-3.643,0-6.639-0.845-8.987-2.532c-2.351-1.688-3.525-4.186-3.525-7.498
			c0-4.435,1.722-7.86,5.163-10.278c3.441-2.415,9.468-4.121,18.074-5.114l3.973-0.496V92.9c0-5.76-0.433-9.633-1.291-11.619
			c-0.86-1.986-2.567-2.979-5.116-2.979c-2.548,0-4.186,0.348-4.914,1.042c-0.729,0.696-0.994,1.49-0.795,2.384
			c0.2,0.894,0.529,2.07,0.993,3.525c0.463,1.458,0.697,2.616,0.697,3.477c0,2.052-0.713,3.791-2.138,5.213
			c-1.424,1.424-3.145,2.135-5.162,2.135c-2.021,0-3.76-0.711-5.215-2.135c-1.457-1.422-2.185-3.161-2.185-5.213
			c0-3.376,1.738-6.272,5.213-8.69c3.477-2.416,8.672-3.625,15.592-3.625c6.917,0,11.851,1.357,14.796,4.072
			c2.945,2.716,4.42,7.514,4.42,14.399v17.875c0,3.509,0.431,5.71,1.291,6.603c0.858,0.894,2.449,1.077,4.767,0.547v0.993
			C899.337,121.566,898.078,122.146,896.226,122.642z M868.421,117.479c1.523,1.357,3.293,2.035,5.312,2.035
			c2.02,0,3.791-0.994,5.314-2.979V99.653l-3.576,0.496c-3.046,0.397-5.511,1.557-7.396,3.477c-1.888,1.921-2.699,4.602-2.434,8.044
			C865.972,114.186,866.896,116.121,868.421,117.479z"/>
	</g>
</g>
<g>
</g>
<g>
</g>
<g>
</g>
<g>
</g>
<g>
</g>
<g>
</g>
</svg>
