<?xml version="1.0" encoding="utf-8"?>
<!-- Generator: Adobe Illustrator 16.0.0, SVG Export Plug-In . SVG Version: 6.00 Build 0)  -->
<!DOCTYPE svg PUBLIC "-//W3C//DTD SVG 1.1//EN" "http://www.w3.org/Graphics/SVG/1.1/DTD/svg11.dtd">
<svg version="1.1" id="Layer_1" xmlns="http://www.w3.org/2000/svg" xmlns:xlink="http://www.w3.org/1999/xlink" x="0px" y="0px"
	 width="1000px" height="200px" viewBox="0 0 1000 200" enable-background="new 0 0 1000 200" xml:space="preserve">
<g>
	
		<rect x="115.844" y="54.281" transform="matrix(0.7071 -0.7071 0.7071 0.7071 -20.2966 136.0642)" fill="#070606" width="76.503" height="76.503"/>
	<g>
		<path fill="#070606" d="M413.306,73.714c0-10.148-1.686-16.962-5.048-20.443c-3.365-3.476-9.664-5.218-18.901-5.218h-5.134v88.958
			h11.974v3.422h-49.61v-3.422h11.974V48.053h-5.131c-9.126,0-15.369,1.742-18.734,5.218c-3.362,3.481-5.044,10.295-5.044,20.443
			h-3.421V44.632h90.497v29.083H413.306z"/>
		<path fill="#070606" d="M496.275,140.434v-9.067c-2.169,3.081-5.561,5.675-10.181,7.785c-4.617,2.106-9.608,3.165-14.969,3.165
			c-20.3,0-30.449-11.007-30.449-33.02V65.162h-8.556V61.74h34.214v51.322c0,8.099,1.198,13.857,3.595,17.276
			c2.394,3.421,5.986,5.134,10.776,5.134c6.386,0,11.574-3.422,15.569-10.266V65.162h-8.556V61.74h34.214v75.271h8.556v3.422
			H496.275z"/>
		<path fill="#070606" d="M595.492,140.434h-42.767v-3.422h8.556v-71.85h-8.556V61.74h34.214v20.357
			c1.028-5.585,2.878-10.149,5.562-13.687c2.678-3.532,5.646-5.872,8.894-7.014c3.251-1.139,6.386-1.709,9.41-1.709
			c3.021,0,5.929,0.544,8.727,1.625c2.794,1.085,4.874,3.249,6.242,6.5c1.369,3.251,1.426,6.503,0.171,9.751
			c-1.255,3.251-3.452,5.559-6.587,6.927c-3.138,1.372-6.016,1.542-8.639,0.514c-2.624-1.025-4.504-2.421-5.643-4.19
			c-1.145-1.766-1.942-3.449-2.396-5.047c-1.142-4.22-2.681-6.33-4.62-6.33c-2.167,0-4.563,3.739-7.185,11.207
			c-2.627,7.471-3.936,15.369-3.936,23.692v32.675h8.553V140.434z"/>
		<path fill="#070606" d="M679.831,137.012h8.556v3.422h-42.771v-3.422h8.553v-71.85h-6.84V61.74h32.502V137.012z M681.37,39.073
			c0,4.163-1.453,7.698-4.363,10.605c-2.908,2.908-6.443,4.363-10.606,4.363c-4.162,0-7.728-1.455-10.692-4.363
			c-2.964-2.907-4.446-6.443-4.446-10.605c0-4.163,1.482-7.725,4.446-10.692c2.965-2.968,6.53-4.45,10.692-4.45
			c4.163,0,7.698,1.482,10.606,4.45C679.917,31.348,681.37,34.91,681.37,39.073z"/>
		<path fill="#070606" d="M737.139,173.709c-3.422,2.904-7.984,4.36-13.687,4.36c-5.705,0-10.151-1.226-13.343-3.679
			c-3.195-2.454-4.791-5.702-4.791-9.751c0-4.05,1.169-7.271,3.509-9.665c2.334-2.394,5.158-3.592,8.466-3.592
			c3.309,0,6.103,0.624,8.383,1.883c2.28,1.252,3.876,2.621,4.79,4.103c2.507,3.993,4.877,5.989,7.101,5.989
			s4.192-1.939,5.902-5.815l7.184-16.938l-40.029-75.442h-6.844V61.74h46.019v3.421h-8.553l22.924,45.161l19.673-45.161h-13.688
			V61.74h28.059v3.421h-10.266l-41.058,94.26C743.809,166.038,740.561,170.798,737.139,173.709z"/>
		<path fill="#070606" d="M893.497,140.006c-3.191,0.854-6.9,1.282-11.116,1.282c-9.354,0-15.227-2.791-17.623-8.383
			c-5.705,5.933-14.428,8.896-26.172,8.896c-6.275,0-11.437-1.455-15.483-4.363c-4.049-2.907-6.072-7.211-6.072-12.915
			c0-7.639,2.965-13.541,8.894-17.707c5.929-4.159,16.311-7.1,31.136-8.809l6.844-0.855V88.77c0-9.924-0.744-16.594-2.224-20.016
			c-1.482-3.422-4.423-5.134-8.812-5.134s-7.211,0.601-8.466,1.796c-1.256,1.198-1.713,2.567-1.369,4.109
			c0.344,1.539,0.912,3.565,1.71,6.072c0.798,2.51,1.201,4.506,1.201,5.989c0,3.535-1.229,6.53-3.682,8.98
			c-2.454,2.454-5.418,3.679-8.894,3.679c-3.481,0-6.476-1.225-8.983-3.679c-2.51-2.45-3.763-5.445-3.763-8.98
			c0-5.818,2.995-10.806,8.98-14.972c5.989-4.16,14.939-6.243,26.859-6.243c11.915,0,20.414,2.337,25.488,7.014
			c5.074,4.68,7.614,12.946,7.614,24.807v30.792c0,6.045,0.741,9.838,2.224,11.377c1.479,1.539,4.22,1.853,8.212,0.94v1.71
			C898.858,138.153,896.688,139.151,893.497,140.006z M845.6,131.109c2.624,2.34,5.672,3.509,9.15,3.509s6.529-1.713,9.153-5.135
			v-29.08l-6.159,0.852c-5.247,0.684-9.494,2.684-12.742,5.988c-3.252,3.312-4.65,7.929-4.193,13.857
			C841.38,125.438,842.973,128.772,845.6,131.109z"/>
	</g>
</g>
<g>
</g>
<g>
</g>
<g>
</g>
<g>
</g>
<g>
</g>
<g>
</g>
</svg>
